<mxfile host="Electron" agent="Mozilla/5.0 (Windows NT 10.0; Win64; x64) AppleWebKit/537.36 (KHTML, like Gecko) draw.io/27.0.2 Chrome/134.0.6998.205 Electron/35.3.0 Safari/537.36" version="27.0.2">
  <diagram id="CZdY7CtGrKhzmkFzMvzD" name="Page-1">
    <mxGraphModel dx="2246" dy="811" grid="1" gridSize="10" guides="1" tooltips="1" connect="1" arrows="1" fold="1" page="1" pageScale="1" pageWidth="850" pageHeight="1100" math="0" shadow="0">
      <root>
        <mxCell id="0" />
        <mxCell id="1" parent="0" />
        <mxCell id="naDv3EVAJMkrd7FQSYH--21" style="edgeStyle=orthogonalEdgeStyle;rounded=0;orthogonalLoop=1;jettySize=auto;html=1;strokeWidth=3;endArrow=block;endFill=1;strokeColor=#333333;" edge="1" parent="1">
          <mxGeometry relative="1" as="geometry">
            <mxPoint x="280" y="390" as="targetPoint" />
            <mxPoint x="160" y="389.58" as="sourcePoint" />
          </mxGeometry>
        </mxCell>
        <mxCell id="naDv3EVAJMkrd7FQSYH--1" value="&lt;font style=&quot;font-size: 24px; color: rgb(51, 51, 51);&quot;&gt;cafeterias&lt;/font&gt;" style="rounded=0;whiteSpace=wrap;html=1;fontFamily=Cascadia Code;fontSource=https%3A%2F%2Ffonts.googleapis.com%2Fcss%3Ffamily%3DCascadia%2BCode;strokeColor=#9673a6;strokeWidth=3;fillColor=#F3E6FA;dashed=1;" vertex="1" parent="1">
          <mxGeometry x="-10" y="360" width="160" height="60" as="geometry" />
        </mxCell>
        <mxCell id="naDv3EVAJMkrd7FQSYH--59" value="" style="group" vertex="1" connectable="0" parent="1">
          <mxGeometry y="569" width="1130" height="71" as="geometry" />
        </mxCell>
        <mxCell id="naDv3EVAJMkrd7FQSYH--32" value="&lt;font style=&quot;font-size: 30px; color: rgb(0, 153, 0);&quot; face=&quot;Cascadia Code&quot;&gt;&quot;Orlan&quot;&lt;/font&gt;" style="text;html=1;align=center;verticalAlign=middle;whiteSpace=wrap;rounded=0;fillColor=#d5e8d4;strokeColor=#82b366;strokeWidth=2;" vertex="1" parent="naDv3EVAJMkrd7FQSYH--59">
          <mxGeometry y="20" width="150" height="50" as="geometry" />
        </mxCell>
        <mxCell id="naDv3EVAJMkrd7FQSYH--33" value="str" style="text;html=1;align=left;verticalAlign=middle;whiteSpace=wrap;rounded=0;fontSize=16;fontFamily=Cascadia Code;fontColor=#4D4D4D;" vertex="1" parent="naDv3EVAJMkrd7FQSYH--59">
          <mxGeometry width="35" height="20" as="geometry" />
        </mxCell>
        <mxCell id="naDv3EVAJMkrd7FQSYH--54" value="" style="group" vertex="1" connectable="0" parent="naDv3EVAJMkrd7FQSYH--59">
          <mxGeometry x="170" width="200" height="70" as="geometry" />
        </mxCell>
        <mxCell id="naDv3EVAJMkrd7FQSYH--36" value="str" style="text;html=1;align=left;verticalAlign=middle;whiteSpace=wrap;rounded=0;fontSize=16;fontFamily=Cascadia Code;fontColor=#4D4D4D;container=0;" vertex="1" parent="naDv3EVAJMkrd7FQSYH--54">
          <mxGeometry width="35" height="20" as="geometry" />
        </mxCell>
        <mxCell id="naDv3EVAJMkrd7FQSYH--35" value="&lt;span style=&quot;color: rgb(0, 153, 77); font-family: &amp;quot;Cascadia Code&amp;quot;; font-size: 30px;&quot;&gt;&quot;Infinita&quot;&lt;/span&gt;" style="text;html=1;align=center;verticalAlign=middle;whiteSpace=wrap;rounded=0;fillColor=#d5e8d4;strokeColor=#82b366;strokeWidth=2;container=0;" vertex="1" parent="naDv3EVAJMkrd7FQSYH--54">
          <mxGeometry y="20" width="200" height="50" as="geometry" />
        </mxCell>
        <mxCell id="naDv3EVAJMkrd7FQSYH--55" value="" style="group" vertex="1" connectable="0" parent="naDv3EVAJMkrd7FQSYH--59">
          <mxGeometry x="390" y="1" width="130" height="70" as="geometry" />
        </mxCell>
        <mxCell id="naDv3EVAJMkrd7FQSYH--40" value="&lt;span style=&quot;color: rgb(0, 153, 77); font-family: &amp;quot;Cascadia Code&amp;quot;; font-size: 30px;&quot;&gt;&quot;Arto&quot;&lt;/span&gt;" style="text;html=1;align=center;verticalAlign=middle;whiteSpace=wrap;rounded=0;fillColor=#d5e8d4;strokeColor=#82b366;strokeWidth=2;container=0;" vertex="1" parent="naDv3EVAJMkrd7FQSYH--55">
          <mxGeometry y="20" width="130" height="50" as="geometry" />
        </mxCell>
        <mxCell id="naDv3EVAJMkrd7FQSYH--41" value="str" style="text;html=1;align=left;verticalAlign=middle;whiteSpace=wrap;rounded=0;fontSize=16;fontFamily=Cascadia Code;fontColor=#4D4D4D;container=0;" vertex="1" parent="naDv3EVAJMkrd7FQSYH--55">
          <mxGeometry width="35" height="20" as="geometry" />
        </mxCell>
        <mxCell id="naDv3EVAJMkrd7FQSYH--56" value="" style="group" vertex="1" connectable="0" parent="naDv3EVAJMkrd7FQSYH--59">
          <mxGeometry x="540" y="1" width="220" height="70" as="geometry" />
        </mxCell>
        <mxCell id="naDv3EVAJMkrd7FQSYH--46" value="&lt;span style=&quot;color: rgb(0, 153, 77); font-family: &amp;quot;Cascadia Code&amp;quot;; font-size: 30px;&quot;&gt;&quot;CristÃ³bal&quot;&lt;/span&gt;" style="text;html=1;align=center;verticalAlign=middle;whiteSpace=wrap;rounded=0;fillColor=#d5e8d4;strokeColor=#82b366;strokeWidth=2;" vertex="1" parent="naDv3EVAJMkrd7FQSYH--56">
          <mxGeometry y="20" width="220" height="50" as="geometry" />
        </mxCell>
        <mxCell id="naDv3EVAJMkrd7FQSYH--47" value="str" style="text;html=1;align=left;verticalAlign=middle;whiteSpace=wrap;rounded=0;fontSize=16;fontFamily=Cascadia Code;fontColor=#4D4D4D;" vertex="1" parent="naDv3EVAJMkrd7FQSYH--56">
          <mxGeometry width="35" height="20" as="geometry" />
        </mxCell>
        <mxCell id="naDv3EVAJMkrd7FQSYH--57" value="" style="group" vertex="1" connectable="0" parent="naDv3EVAJMkrd7FQSYH--59">
          <mxGeometry x="780" y="1" width="150" height="70" as="geometry" />
        </mxCell>
        <mxCell id="naDv3EVAJMkrd7FQSYH--43" value="&lt;span style=&quot;color: rgb(0, 153, 77); font-family: &amp;quot;Cascadia Code&amp;quot;; font-size: 30px;&quot;&gt;&quot;Ruffo&quot;&lt;/span&gt;" style="text;html=1;align=center;verticalAlign=middle;whiteSpace=wrap;rounded=0;fillColor=#d5e8d4;strokeColor=#82b366;strokeWidth=2;container=0;" vertex="1" parent="naDv3EVAJMkrd7FQSYH--57">
          <mxGeometry y="20" width="150" height="50" as="geometry" />
        </mxCell>
        <mxCell id="naDv3EVAJMkrd7FQSYH--44" value="str" style="text;html=1;align=left;verticalAlign=middle;whiteSpace=wrap;rounded=0;fontSize=16;fontFamily=Cascadia Code;fontColor=#4D4D4D;container=0;" vertex="1" parent="naDv3EVAJMkrd7FQSYH--57">
          <mxGeometry width="35" height="20" as="geometry" />
        </mxCell>
        <mxCell id="naDv3EVAJMkrd7FQSYH--58" value="" style="group" vertex="1" connectable="0" parent="naDv3EVAJMkrd7FQSYH--59">
          <mxGeometry x="950" y="1" width="180" height="70" as="geometry" />
        </mxCell>
        <mxCell id="naDv3EVAJMkrd7FQSYH--49" value="&lt;span style=&quot;color: rgb(0, 153, 77); font-family: &amp;quot;Cascadia Code&amp;quot;; font-size: 30px;&quot;&gt;&quot;Heroica&quot;&lt;/span&gt;" style="text;html=1;align=center;verticalAlign=middle;whiteSpace=wrap;rounded=0;fillColor=#d5e8d4;strokeColor=#82b366;strokeWidth=2;container=0;" vertex="1" parent="naDv3EVAJMkrd7FQSYH--58">
          <mxGeometry y="20" width="180" height="50" as="geometry" />
        </mxCell>
        <mxCell id="naDv3EVAJMkrd7FQSYH--50" value="str" style="text;html=1;align=left;verticalAlign=middle;whiteSpace=wrap;rounded=0;fontSize=16;fontFamily=Cascadia Code;fontColor=#4D4D4D;container=0;" vertex="1" parent="naDv3EVAJMkrd7FQSYH--58">
          <mxGeometry width="35" height="20" as="geometry" />
        </mxCell>
        <mxCell id="naDv3EVAJMkrd7FQSYH--60" value="" style="group;fontStyle=1" vertex="1" connectable="0" parent="1">
          <mxGeometry x="290" y="322" width="550" height="140" as="geometry" />
        </mxCell>
        <mxCell id="naDv3EVAJMkrd7FQSYH--2" value="" style="rounded=0;whiteSpace=wrap;html=1;fillColor=#dae8fc;strokeColor=#6c8ebf;strokeWidth=3;" vertex="1" parent="naDv3EVAJMkrd7FQSYH--60">
          <mxGeometry width="550" height="140" as="geometry" />
        </mxCell>
        <mxCell id="naDv3EVAJMkrd7FQSYH--4" value="" style="rounded=0;whiteSpace=wrap;html=1;strokeWidth=2;" vertex="1" parent="naDv3EVAJMkrd7FQSYH--60">
          <mxGeometry x="10" y="50" width="80" height="80" as="geometry" />
        </mxCell>
        <mxCell id="naDv3EVAJMkrd7FQSYH--5" value="" style="rounded=0;whiteSpace=wrap;html=1;strokeWidth=2;" vertex="1" parent="naDv3EVAJMkrd7FQSYH--60">
          <mxGeometry x="100" y="50" width="80" height="80" as="geometry" />
        </mxCell>
        <mxCell id="naDv3EVAJMkrd7FQSYH--17" value="" style="rounded=0;whiteSpace=wrap;html=1;strokeWidth=2;" vertex="1" parent="naDv3EVAJMkrd7FQSYH--60">
          <mxGeometry x="190" y="50" width="80" height="80" as="geometry" />
        </mxCell>
        <mxCell id="naDv3EVAJMkrd7FQSYH--18" value="" style="rounded=0;whiteSpace=wrap;html=1;strokeWidth=2;" vertex="1" parent="naDv3EVAJMkrd7FQSYH--60">
          <mxGeometry x="280" y="50" width="80" height="80" as="geometry" />
        </mxCell>
        <mxCell id="naDv3EVAJMkrd7FQSYH--19" value="" style="rounded=0;whiteSpace=wrap;html=1;strokeWidth=2;" vertex="1" parent="naDv3EVAJMkrd7FQSYH--60">
          <mxGeometry x="370" y="50" width="80" height="80" as="geometry" />
        </mxCell>
        <mxCell id="naDv3EVAJMkrd7FQSYH--20" value="" style="rounded=0;whiteSpace=wrap;html=1;strokeWidth=2;" vertex="1" parent="naDv3EVAJMkrd7FQSYH--60">
          <mxGeometry x="460" y="50" width="80" height="80" as="geometry" />
        </mxCell>
        <mxCell id="naDv3EVAJMkrd7FQSYH--264" value="&lt;font&gt;0&lt;/font&gt;" style="text;html=1;align=center;verticalAlign=middle;whiteSpace=wrap;rounded=0;fontSize=28;fontColor=#333333;fontFamily=Cascadia Code;" vertex="1" parent="naDv3EVAJMkrd7FQSYH--60">
          <mxGeometry x="20" y="8" width="60" height="30" as="geometry" />
        </mxCell>
        <mxCell id="naDv3EVAJMkrd7FQSYH--265" value="&lt;font&gt;1&lt;/font&gt;" style="text;html=1;align=center;verticalAlign=middle;whiteSpace=wrap;rounded=0;fontSize=28;fontColor=#333333;fontFamily=Cascadia Code;" vertex="1" parent="naDv3EVAJMkrd7FQSYH--60">
          <mxGeometry x="110" y="8" width="60" height="30" as="geometry" />
        </mxCell>
        <mxCell id="naDv3EVAJMkrd7FQSYH--266" value="&lt;font&gt;2&lt;/font&gt;" style="text;html=1;align=center;verticalAlign=middle;whiteSpace=wrap;rounded=0;fontSize=28;fontColor=#333333;fontFamily=Cascadia Code;" vertex="1" parent="naDv3EVAJMkrd7FQSYH--60">
          <mxGeometry x="200" y="8" width="60" height="30" as="geometry" />
        </mxCell>
        <mxCell id="naDv3EVAJMkrd7FQSYH--267" value="&lt;font&gt;3&lt;/font&gt;" style="text;html=1;align=center;verticalAlign=middle;whiteSpace=wrap;rounded=0;fontSize=28;fontColor=#333333;fontFamily=Cascadia Code;" vertex="1" parent="naDv3EVAJMkrd7FQSYH--60">
          <mxGeometry x="290" y="8" width="60" height="30" as="geometry" />
        </mxCell>
        <mxCell id="naDv3EVAJMkrd7FQSYH--268" value="&lt;font&gt;4&lt;/font&gt;" style="text;html=1;align=center;verticalAlign=middle;whiteSpace=wrap;rounded=0;fontSize=28;fontColor=#333333;fontFamily=Cascadia Code;" vertex="1" parent="naDv3EVAJMkrd7FQSYH--60">
          <mxGeometry x="380" y="8" width="60" height="30" as="geometry" />
        </mxCell>
        <mxCell id="naDv3EVAJMkrd7FQSYH--269" value="&lt;font&gt;5&lt;/font&gt;" style="text;html=1;align=center;verticalAlign=middle;whiteSpace=wrap;rounded=0;fontSize=28;fontColor=#333333;fontFamily=Cascadia Code;" vertex="1" parent="naDv3EVAJMkrd7FQSYH--60">
          <mxGeometry x="470" y="8" width="60" height="30" as="geometry" />
        </mxCell>
        <mxCell id="naDv3EVAJMkrd7FQSYH--257" style="edgeStyle=orthogonalEdgeStyle;rounded=0;orthogonalLoop=1;jettySize=auto;html=1;exitX=0.5;exitY=1;exitDx=0;exitDy=0;entryX=0.5;entryY=0;entryDx=0;entryDy=0;strokeWidth=2;strokeColor=#333333;endArrow=block;endFill=1;" edge="1" parent="1" source="naDv3EVAJMkrd7FQSYH--4" target="naDv3EVAJMkrd7FQSYH--32">
          <mxGeometry relative="1" as="geometry" />
        </mxCell>
        <mxCell id="naDv3EVAJMkrd7FQSYH--258" style="edgeStyle=orthogonalEdgeStyle;rounded=0;orthogonalLoop=1;jettySize=auto;html=1;exitX=0.5;exitY=1;exitDx=0;exitDy=0;entryX=0.5;entryY=0;entryDx=0;entryDy=0;strokeWidth=2;strokeColor=#333333;endArrow=block;endFill=1;" edge="1" parent="1" source="naDv3EVAJMkrd7FQSYH--5" target="naDv3EVAJMkrd7FQSYH--35">
          <mxGeometry relative="1" as="geometry">
            <Array as="points">
              <mxPoint x="430" y="530" />
              <mxPoint x="270" y="530" />
            </Array>
          </mxGeometry>
        </mxCell>
        <mxCell id="naDv3EVAJMkrd7FQSYH--259" style="edgeStyle=orthogonalEdgeStyle;rounded=0;orthogonalLoop=1;jettySize=auto;html=1;exitX=0.5;exitY=1;exitDx=0;exitDy=0;entryX=0.5;entryY=0;entryDx=0;entryDy=0;strokeWidth=2;strokeColor=#333333;endArrow=block;endFill=1;" edge="1" parent="1" source="naDv3EVAJMkrd7FQSYH--17" target="naDv3EVAJMkrd7FQSYH--40">
          <mxGeometry relative="1" as="geometry" />
        </mxCell>
        <mxCell id="naDv3EVAJMkrd7FQSYH--260" style="edgeStyle=orthogonalEdgeStyle;rounded=0;orthogonalLoop=1;jettySize=auto;html=1;entryX=0.5;entryY=0;entryDx=0;entryDy=0;strokeWidth=2;strokeColor=#333333;endArrow=block;endFill=1;" edge="1" parent="1" source="naDv3EVAJMkrd7FQSYH--18" target="naDv3EVAJMkrd7FQSYH--46">
          <mxGeometry relative="1" as="geometry" />
        </mxCell>
        <mxCell id="naDv3EVAJMkrd7FQSYH--262" style="edgeStyle=orthogonalEdgeStyle;rounded=0;orthogonalLoop=1;jettySize=auto;html=1;entryX=0.5;entryY=0;entryDx=0;entryDy=0;strokeWidth=2;strokeColor=#333333;endArrow=block;endFill=1;" edge="1" parent="1" source="naDv3EVAJMkrd7FQSYH--19" target="naDv3EVAJMkrd7FQSYH--43">
          <mxGeometry relative="1" as="geometry">
            <Array as="points">
              <mxPoint x="700" y="530" />
              <mxPoint x="855" y="530" />
            </Array>
          </mxGeometry>
        </mxCell>
        <mxCell id="naDv3EVAJMkrd7FQSYH--263" style="edgeStyle=orthogonalEdgeStyle;rounded=0;orthogonalLoop=1;jettySize=auto;html=1;exitX=0.5;exitY=1;exitDx=0;exitDy=0;entryX=0.5;entryY=0;entryDx=0;entryDy=0;strokeWidth=2;strokeColor=#333333;endArrow=block;endFill=1;" edge="1" parent="1" source="naDv3EVAJMkrd7FQSYH--20" target="naDv3EVAJMkrd7FQSYH--49">
          <mxGeometry relative="1" as="geometry">
            <Array as="points">
              <mxPoint x="790" y="521" />
              <mxPoint x="1040" y="521" />
            </Array>
          </mxGeometry>
        </mxCell>
        <mxCell id="naDv3EVAJMkrd7FQSYH--270" value="list" style="text;html=1;align=left;verticalAlign=middle;whiteSpace=wrap;rounded=0;fontSize=16;fontFamily=Cascadia Code;fontColor=#4D4D4D;container=0;" vertex="1" parent="1">
          <mxGeometry x="290" y="300" width="35" height="20" as="geometry" />
        </mxCell>
      </root>
    </mxGraphModel>
  </diagram>
</mxfile>
